<svg xmlns="http://www.w3.org/2000/svg" width="32" height="32" viewBox="0 0 24 24" fill="none" stroke="#6366f1" stroke-width="2" stroke-linecap="round" stroke-linejoin="round">
  <path d="M12 2a8 8 0 0 0-8 8c0 5.4 7.05 11.5 7.35 11.76a1 1 0 0 0 1.3 0C13 21.5 20 15.4 20 10a8 8 0 0 0-8-8z"/>
  <circle cx="12" cy="10" r="3"/>
  <path d="M12 2v3"/>
  <path d="M12 19v3"/>
  <path d="M4.93 4.93l2.12 2.12"/>
  <path d="M16.95 16.95l2.12 2.12"/>
  <path d="M2 12h3"/>
  <path d="M19 12h3"/>
  <path d="M4.93 19.07l2.12-2.12"/>
  <path d="M16.95 7.05l2.12-2.12"/>
</svg>
